<?xml version="1.0" encoding="UTF-8"?>
<svg width="63px" height="63px" viewBox="0 0 63 63" version="1.1" xmlns="http://www.w3.org/2000/svg" xmlns:xlink="http://www.w3.org/1999/xlink">
    <!-- Generator: Sketch 63 (92445) - https://sketch.com -->
    <title>Asset 10@3sa00x</title>
    <desc>Created with Sketch.</desc>
    <g id="Page-1" stroke="none" stroke-width="1" fill="none" fill-rule="evenodd">
        <g id="Login-Page" transform="translate(-689.000000, -166.000000)" fill="#FFFFFF" fill-rule="nonzero">
            <g id="Group-5" transform="translate(488.000000, 106.000000)">
                <g id="Group" transform="translate(142.000000, 0.000000)">
                    <g id="Asset-10@3sa00x" transform="translate(59.000000, 60.000000)">
                        <path d="M62.9955326,60.3790143 L62.9955326,60.3790143 C62.9182674,58.4880007 62.6706402,56.6080732 62.2557331,54.7626293 C61.9663299,53.3877299 61.5793437,52.0357479 61.0977862,50.7172042 C59.4413314,46.1640574 56.7820951,42.0526307 53.3218505,38.6948845 C52.3364025,37.7327154 51.288713,36.8380813 50.1857441,36.0169271 C47.3407821,33.8847258 44.1597244,32.255471 40.7774248,31.1982316 C46.9619573,27.0549426 49.7323753,19.2980365 47.5950989,12.1093942 C45.4578226,4.92075203 38.9181728,0 31.501787,0 C24.0854011,0 17.5457513,4.92075203 15.408475,12.1093942 C13.2711986,19.2980365 16.0416166,27.0549426 22.2261491,31.1982316 C18.8536514,32.2552039 15.6831309,33.8846324 12.849995,36.0169271 C11.7432186,36.8331797 10.695205,37.7280905 9.71388861,38.6948845 C6.23848788,42.0462961 3.56750903,46.1588661 1.90578775,50.7172042 C1.42281867,52.0276542 1.03315973,53.3714249 0.739799464,54.7382103 C0.316018054,56.6095651 0.0683118591,58.5173468 0,60.4359921 C0,60.5336684 0,60.6313446 0,60.7208812 L0,60.8104178 C0.0754358316,61.9682344 0.992621024,62.8869849 2.1371686,62.9512338 C3.28171618,63.0154826 4.29363766,62.205022 4.49508587,61.0627481 L4.49508587,60.7371606 L4.49508587,60.7371606 L4.57549886,59.6138836 C4.70215892,57.9813751 4.97125117,56.3634097 5.37962871,54.7789087 C5.72295786,53.405168 6.1719607,52.0607288 6.72252556,50.7579027 C8.0367589,47.6002949 9.92114292,44.718431 12.2790628,42.260068 C21.666042,32.4857081 36.7595935,31.2769654 47.5481982,39.4355962 C48.6960954,40.287906 49.7719765,41.2353753 50.7647176,42.2682077 C53.0962252,44.7195286 54.9632754,47.5833396 56.273007,50.7172042 C56.8235719,52.0200303 57.2725747,53.3644695 57.6159039,54.7382103 C58.0242814,56.3227113 58.2933737,57.9406766 58.4200338,59.5731851 L58.5004467,60.6394843 L58.5004467,60.7046018 L58.5004467,61.1197259 C58.4966846,61.1357826 58.4966846,61.1525074 58.5004467,61.168564 C58.7114851,62.2349071 59.637421,63.0017606 60.7118038,63 C61.8740027,62.9983086 62.8482085,62.1104445 62.9714087,60.9406528 L62.9714087,60.9406528 C63.0035739,60.7371606 63.0035739,60.5580874 62.9955326,60.3790143 Z M31.4977663,29.7820541 C26.3940166,29.7820541 21.7929665,26.6694474 19.8405981,21.8961885 C17.8882297,17.1229296 18.969144,11.6291832 22.5791903,7.97729493 C26.1892366,4.3254067 31.6172645,3.23476958 36.3315801,5.21406912 C41.0458958,7.19336865 44.1178166,11.8526986 44.114657,17.0188945 C44.1274633,20.4092592 42.8020814,23.6644151 40.4329374,26.0610184 C38.0637935,28.4576217 34.8471405,29.7971448 31.4977663,29.7820541 Z" id="Shape"></path>
                    </g>
                </g>
            </g>
        </g>
    </g>
</svg>